<?xml version="1.0" encoding="utf-8"?>
<!-- Generator: Adobe Illustrator 22.1.0, SVG Export Plug-In . SVG Version: 6.00 Build 0)  -->
<svg version="1.1" xmlns="http://www.w3.org/2000/svg" xmlns:xlink="http://www.w3.org/1999/xlink" x="0px" y="0px"
	 viewBox="0 0 367 56.5" style="enable-background:new 0 0 367 56.5;" xml:space="preserve">
<style type="text/css">
	.st0{display:none;}
	.st1{display:inline;}
</style>
<g id="Layer_1" class="st0">
	<path class="st1" d="M4.5-13.4h25c2.7,0,5.3,0.4,7.7,1.3c2.4,0.9,4.5,2.1,6.2,3.6c1.8,1.5,3.1,3.3,4.2,5.3c1,2,1.5,4.2,1.5,6.5
		c0,3.4-0.8,6.2-2.5,8.5c-1.6,2.3-3.7,4-6.1,5.2v0.7c3.3,1.2,5.9,3.1,7.9,5.6c2,2.5,3,5.7,3,9.4c0,2.7-0.6,5.2-1.7,7.4
		c-1.1,2.2-2.6,4-4.5,5.6c-1.9,1.5-4.1,2.7-6.7,3.6c-2.5,0.8-5.3,1.3-8.2,1.3H4.5V-13.4z M28.6,12.7c2.8,0,5-0.8,6.5-2.3
		s2.3-3.3,2.3-5.4c0-2.1-0.7-3.9-2.2-5.4c-1.5-1.5-3.5-2.2-6.2-2.2H16.6v15.3H28.6z M30,39.6c3,0,5.4-0.8,7-2.3
		c1.6-1.5,2.4-3.5,2.4-5.9c0-2.4-0.8-4.4-2.5-5.9c-1.6-1.6-4.1-2.4-7.3-2.4H16.6v16.4H30z"/>
	<path class="st1" d="M78.6-13.4h23.3c3.2,0,6.1,0.5,8.8,1.5c2.6,1,4.9,2.4,6.7,4.2c1.9,1.8,3.3,3.9,4.3,6.4c1,2.5,1.5,5.2,1.5,8.1
		c0,2.1-0.4,4.2-1.1,6c-0.7,1.9-1.7,3.6-2.9,5.1c-1.3,1.5-2.7,2.9-4.4,4c-1.7,1.2-3.4,2.1-5.3,2.7l-0.1,0.6l17.2,24.6v0.7h-13.9
		l-16.5-24h-5.6v24H78.6V-13.4z M101.8,15.5c2.7,0,5-0.8,6.7-2.5c1.8-1.7,2.6-3.8,2.6-6.3c0-1.1-0.2-2.2-0.6-3.3
		c-0.4-1.1-1-2-1.7-2.9c-0.8-0.8-1.7-1.5-2.9-2c-1.2-0.5-2.5-0.8-4-0.8H90.7v17.8H101.8z"/>
	<path class="st1" d="M151.9-13.4H164v64h-12.1V-13.4z"/>
	<path class="st1" d="M206.8-1.9v14.8h25.7v11.4h-25.7v14.8h28.5v11.4h-40.6v-64h40.6v11.4H206.8z"/>
	<path class="st1" d="M264.3-13.4h40.6v11.4h-28.5v15.6H302v11.4h-25.7v25.6h-12.1V-13.4z"/>
	<path class="st1" d="M401.6-13.4h23.3c3.2,0,6.1,0.5,8.8,1.5c2.6,1,4.9,2.4,6.7,4.2s3.3,3.9,4.3,6.4c1,2.5,1.5,5.2,1.5,8.1
		c0,2.1-0.4,4.2-1.1,6c-0.7,1.9-1.7,3.6-3,5.1c-1.3,1.5-2.7,2.9-4.4,4c-1.7,1.2-3.4,2.1-5.3,2.7l-0.1,0.6l17.2,24.6v0.7h-13.9
		l-16.5-24h-5.6v24h-12.1V-13.4z M424.8,15.5c2.7,0,5-0.8,6.8-2.5c1.8-1.7,2.6-3.8,2.6-6.3c0-1.1-0.2-2.2-0.6-3.3
		c-0.4-1.1-1-2-1.7-2.9c-0.8-0.8-1.7-1.5-2.9-2c-1.2-0.5-2.5-0.8-4-0.8h-11.4v17.8H424.8z"/>
	<rect x="332" y="-13.4" class="st1" width="40.6" height="11.1"/>
	<g class="st1">
		<polygon points="344.1,24.4 349.4,24.4 369.8,24.4 369.8,12.9 344.1,12.9 344.1,12.9 332,12.9 332,24.4 		"/>
		<polygon points="344.1,39.2 344.1,39.1 332,39.1 332,50.6 372.6,50.6 372.6,39.2 		"/>
	</g>
</g>
<g id="Layer_1_copy">
	<path d="M4.5,2.7h20.3c2.2,0,4.3,0.4,6.2,1.1c1.9,0.7,3.6,1.7,5,2.9c1.4,1.2,2.5,2.7,3.4,4.3c0.8,1.6,1.2,3.4,1.2,5.3
		c0,2.8-0.7,5.1-2,6.9c-1.3,1.9-3,3.3-5,4.2V28c2.7,1,4.8,2.5,6.4,4.5c1.6,2.1,2.4,4.6,2.4,7.6c0,2.2-0.4,4.2-1.3,6
		c-0.9,1.8-2.1,3.3-3.7,4.5c-1.5,1.3-3.3,2.2-5.4,2.9c-2.1,0.7-4.3,1-6.6,1h-21V2.7z M24.1,23.9c2.3,0,4-0.6,5.3-1.8
		c1.2-1.2,1.8-2.7,1.8-4.4c0-1.7-0.6-3.1-1.8-4.3c-1.2-1.2-2.9-1.8-5-1.8H14.3v12.4H24.1z M25.1,45.6c2.5,0,4.3-0.6,5.7-1.8
		c1.3-1.2,2-2.8,2-4.7c0-1.9-0.7-3.5-2-4.8c-1.3-1.3-3.3-1.9-5.9-1.9H14.3v13.3H25.1z"/>
	<path d="M64.6,2.7h18.9c2.6,0,5,0.4,7.1,1.2c2.1,0.8,4,2,5.5,3.4c1.5,1.4,2.7,3.2,3.5,5.2c0.8,2,1.2,4.2,1.2,6.6
		c0,1.7-0.3,3.4-0.9,4.9c-0.6,1.5-1.4,2.9-2.4,4.1c-1,1.2-2.2,2.3-3.6,3.3c-1.4,0.9-2.8,1.7-4.3,2.2l-0.1,0.5l13.9,19.9v0.6H92.3
		L78.9,35.1h-4.6v19.5h-9.8V2.7z M83.4,26.2c2.2,0,4-0.7,5.5-2c1.4-1.4,2.1-3.1,2.1-5.1c0-0.9-0.2-1.8-0.5-2.7
		c-0.3-0.9-0.8-1.6-1.4-2.3c-0.6-0.7-1.4-1.2-2.4-1.6c-0.9-0.4-2-0.6-3.2-0.6h-9.2v14.4H83.4z"/>
	<path d="M124,2.7h9.8v51.9H124V2.7z"/>
	<path d="M168.5,12v12h20.8v9.3h-20.8v12h23.1v9.3h-32.9V2.7h32.9V12H168.5z"/>
	<path d="M215.1,2.7H248V12h-23.1v12.6h20.8v9.3h-20.8v20.7h-9.8V2.7z"/>
	<path d="M326.4,2.7h18.9c2.6,0,5,0.4,7.1,1.2c2.1,0.8,4,2,5.5,3.4c1.5,1.4,2.7,3.2,3.5,5.2c0.8,2,1.2,4.2,1.2,6.6
		c0,1.7-0.3,3.4-0.9,4.9c-0.6,1.5-1.4,2.9-2.4,4.1c-1,1.2-2.2,2.3-3.6,3.3c-1.4,0.9-2.8,1.7-4.3,2.2l-0.1,0.5l13.9,19.9v0.6h-11.2
		l-13.4-19.5h-4.6v19.5h-9.8V2.7z M345.3,26.2c2.2,0,4-0.7,5.5-2c1.4-1.4,2.1-3.1,2.1-5.1c0-0.9-0.2-1.8-0.5-2.7
		c-0.3-0.9-0.8-1.6-1.4-2.3c-0.6-0.7-1.4-1.2-2.4-1.6c-0.9-0.4-2-0.6-3.2-0.6h-9.2v14.4H345.3z"/>
	<rect x="270" y="2.7" width="32.9" height="9"/>
	<g>
		<polygon points="279.8,33.3 284.1,33.3 300.6,33.3 300.6,24 279.8,24 279.8,24 270,24 270,33.3 		"/>
		<polygon points="279.8,45.4 279.8,45.3 270,45.3 270,54.6 302.9,54.6 302.9,45.4 		"/>
	</g>
</g>
</svg>
